<svg width="221" height="33" viewBox="0 0 221 33" fill="none" xmlns="http://www.w3.org/2000/svg">
<path d="M39.4866 8.93718C37.971 8.93718 36.3696 9.69315 35.3687 10.8562H35.3115V3.55811H32.5376V24.7836H35.0827V23.3007H35.1399C36.1122 24.4347 37.8852 25.2197 39.4295 25.2197C43.433 25.2197 46.0068 22.0214 46.0068 17.0784C46.0068 12.2809 43.3186 8.93718 39.4866 8.93718ZM39.0005 22.661C36.9129 22.661 35.3115 21.2072 35.3115 19.2882V15.1594C35.3115 13.095 36.9129 11.5249 39.0005 11.5249C41.7172 11.5249 43.2329 13.5312 43.2329 17.0784C43.2329 20.6548 41.7172 22.661 39.0005 22.661Z" fill="url(#paint0_linear_107_31)"/>
<path d="M23.5297 8.93701C19.4117 8.93701 16.5806 12.2808 16.5806 17.0783C16.5806 21.9922 19.3259 25.2196 23.5297 25.2196C27.6762 25.2196 30.393 21.9922 30.393 17.0783C30.393 12.2808 27.5904 8.93701 23.5297 8.93701ZM23.5297 22.6609C20.9273 22.6609 19.3259 20.5093 19.3259 17.0783C19.3259 13.6474 20.9273 11.5248 23.5297 11.5248C26.0462 11.5248 27.6476 13.7055 27.6476 17.0783C27.6476 20.4802 26.0462 22.6609 23.5297 22.6609Z" fill="url(#paint1_linear_107_31)"/>
<path d="M15.294 10.3331C15.294 6.72767 12.663 4.43066 8.54506 4.43066H0.709473V24.7839H3.56917V16.7299H7.65855C10.8042 16.7299 11.9481 18.0092 11.9481 21.5565V24.7839H14.722V21.5565C14.722 18.3087 13.7497 16.378 11.6307 15.5843C13.8012 14.8108 15.294 12.9907 15.294 10.3331ZM8.31628 14.1421H3.56917V7.07658H8.28768C11.0044 7.07658 12.4057 8.2687 12.4057 10.6239C12.4057 12.8918 10.9758 14.1421 8.31628 14.1421Z" fill="url(#paint2_linear_107_31)"/>
<path d="M61.1349 8.93701C59.5335 8.93701 57.8176 9.72206 56.9883 10.8561H56.9311V9.37315H54.2144V24.7835H56.9883V15.1012C56.9883 12.9205 58.3896 11.5539 60.5916 11.5539C62.7649 11.5539 63.7944 12.8332 63.7944 15.5082V24.7835H66.5969V14.6941C66.5969 11.1468 64.4808 8.93701 61.1349 8.93701Z" fill="url(#paint3_linear_107_31)"/>
<path d="M106.375 8.93701C102.257 8.93701 99.4263 12.2808 99.4263 17.0783C99.4263 21.9922 102.172 25.2196 106.375 25.2196C110.522 25.2196 113.239 21.9922 113.239 17.0783C113.239 12.2808 110.436 8.93701 106.375 8.93701ZM106.375 22.6609C103.773 22.6609 102.172 20.5093 102.172 17.0783C102.172 13.6474 103.773 11.5248 106.375 11.5248C108.892 11.5248 110.493 13.7055 110.493 17.0783C110.493 20.4802 108.892 22.6609 106.375 22.6609Z" fill="url(#paint4_linear_107_31)"/>
<path d="M125.65 3.55811V10.8562H125.593C124.592 9.66408 123.019 8.93718 121.503 8.93718C117.671 8.93718 114.955 12.339 114.955 17.0784C114.955 22.0214 117.528 25.2197 121.532 25.2197C123.076 25.2197 124.849 24.4347 125.821 23.3007H125.879V24.7836H128.424V3.55811H125.65ZM125.65 19.2882C125.65 21.2072 124.048 22.661 121.961 22.661C119.244 22.661 117.728 20.6548 117.728 17.0784C117.728 13.5312 119.244 11.5249 121.961 11.5249C124.048 11.5249 125.65 13.095 125.65 15.1594V19.2882Z" fill="url(#paint5_linear_107_31)"/>
<path d="M90.8475 8.93701C86.7295 8.93701 83.8984 12.2808 83.8984 17.0783C83.8984 21.9922 86.6437 25.2196 90.8475 25.2196C94.9941 25.2196 97.7108 21.9922 97.7108 17.0783C97.7108 12.2808 94.9083 8.93701 90.8475 8.93701ZM90.8475 22.6609C88.2452 22.6609 86.6437 20.5093 86.6437 17.0783C86.6437 13.6474 88.2452 11.5248 90.8475 11.5248C93.364 11.5248 94.9655 13.7055 94.9655 17.0783C94.9655 20.4802 93.364 22.6609 90.8475 22.6609Z" fill="url(#paint6_linear_107_31)"/>
<path d="M51.1829 3.55811H48.1802V6.55294H51.1829V3.55811Z" fill="url(#paint7_linear_107_31)"/>
<path d="M76.4914 8.93718C74.8041 8.93718 73.0883 9.75131 72.2876 10.9143H72.2304V3.55811H69.4565V24.7836H72.2304V15.1013C72.2304 13.0078 73.7175 11.554 75.8336 11.554C77.9212 11.554 79.1223 12.9496 79.1223 15.363V24.7836H81.8962V14.6651C81.8962 11.1469 79.8086 8.93718 76.4914 8.93718Z" fill="url(#paint8_linear_107_31)"/>
<path d="M51.0688 9.37329H48.2949V24.7836H51.0688V9.37329Z" fill="url(#paint9_linear_107_31)"/>
<path d="M206.434 25.5159L206.226 25.5857C204.881 26.0393 202.894 26.74 201.11 27.5745C201.015 27.621 200.952 27.749 200.952 27.749C200.918 27.8275 200.878 27.9234 200.832 28.031L200.826 28.0455C200.626 28.5079 200.352 29.2028 200.232 29.4877L200.14 29.7116C200.126 29.7465 200.134 29.7872 200.163 29.8134C200.18 29.8308 200.2 29.8395 200.223 29.8395C200.234 29.8395 200.249 29.8366 200.263 29.8308L200.478 29.7261C200.967 29.4906 201.584 29.133 202.231 28.819L202.253 28.8073C203.486 28.2142 204.876 27.5425 205.714 27.1355C205.714 27.1355 205.848 27.0628 205.917 26.9261L206.543 25.6468C206.56 25.6148 206.554 25.5741 206.532 25.545C206.509 25.5159 206.469 25.5043 206.434 25.5159Z" fill="url(#paint10_linear_107_31)"/>
<path d="M201.424 23.5333C201.513 23.3588 201.919 22.5621 202.01 22.3848L202.027 22.3528C204.75 17.1336 208.067 12.2082 211.885 7.71884L211.991 7.59382C212.022 7.55602 212.028 7.49787 212.005 7.45425C211.979 7.40773 211.931 7.38447 211.882 7.39028L211.722 7.41355C209.217 7.76537 206.68 8.25094 204.181 8.85862C203.932 8.92841 203.772 9.09414 203.738 9.13194C201.867 11.4086 200.097 13.8044 198.473 16.2614C198.393 16.3864 198.364 16.5492 198.384 16.683C198.401 16.8138 198.793 19.8813 199.388 22.2365C197.912 26.5543 196.594 32.2445 196.594 32.2445C196.583 32.2823 196.591 32.3201 196.611 32.3521C196.634 32.384 196.668 32.4015 196.708 32.4015H197.549C197.604 32.4015 197.649 32.3695 197.669 32.3201L197.726 32.1601C198.584 29.7817 199.562 27.4324 200.643 25.1412C200.895 24.612 201.424 23.5333 201.424 23.5333Z" fill="url(#paint11_linear_107_31)"/>
<path d="M213.117 8.65538L213.115 8.49255C213.112 8.44021 213.08 8.3966 213.034 8.37915C212.989 8.36171 212.934 8.37625 212.9 8.41405L212.794 8.53617C208.342 13.7728 204.598 19.5822 201.67 25.8073L201.601 25.9527C201.578 25.9992 201.587 26.0545 201.621 26.0923C201.644 26.1155 201.676 26.1301 201.707 26.1301C201.721 26.1301 201.739 26.1272 201.756 26.1214L201.902 26.0603C204.404 25.0077 206.958 24.0948 209.494 23.3475C209.646 23.3039 209.774 23.1934 209.846 23.0509C210.958 20.847 213.541 16.5786 213.541 16.5786C213.606 16.4826 213.589 16.3402 213.589 16.3402C213.589 16.3402 213.146 11.2373 213.117 8.65538Z" fill="url(#paint12_linear_107_31)"/>
<path d="M218.877 1.29291C218.245 0.734654 217.327 0.472969 215.903 0.440986C214.61 0.41191 213.075 0.696855 211.333 1.27838C211.073 1.37142 210.864 1.51971 210.678 1.70289C208.908 3.39221 207.186 5.1862 205.559 7.03544L205.433 7.175C205.399 7.21571 205.393 7.27386 205.419 7.31747C205.445 7.364 205.499 7.38726 205.551 7.37563L205.734 7.33492C208.356 6.76503 211.004 6.32889 213.604 6.04103C213.775 6.02068 213.952 6.07883 214.078 6.19805C214.207 6.31726 214.278 6.48881 214.276 6.66617C214.233 9.28883 214.327 11.9231 214.556 14.4964L214.57 14.665C214.576 14.7173 214.61 14.758 214.662 14.7726C214.67 14.7755 214.679 14.7755 214.69 14.7784C214.727 14.7784 214.767 14.7609 214.793 14.7261L214.888 14.5894C216.352 12.4668 217.945 10.4024 219.62 8.44853C219.809 8.23046 219.858 8.0938 219.892 7.89609C220.418 4.47093 219.603 1.9355 218.877 1.29291Z" fill="url(#paint13_linear_107_31)"/>
<path d="M145.869 25.0942C141.401 25.0942 137.467 22.0654 137.467 14.4363C137.467 7.66441 141.57 4.2356 145.841 4.2356C149.748 4.2356 152.67 6.89293 153.288 10.8932L150.422 11.4075C149.944 9.00736 148.68 6.9215 145.869 6.9215C142.947 6.9215 140.39 9.32167 140.39 14.4363C140.39 19.951 142.834 22.4083 145.869 22.4083C148.848 22.4083 150.675 20.4939 150.647 17.2079H146.122V14.6649H153.401V16.8365C153.401 22.094 150.253 25.0942 145.869 25.0942Z" fill="url(#paint14_linear_107_31)"/>
<path d="M161.915 22.5797C164.22 22.5797 165.962 20.6652 165.962 17.0936C165.962 13.5504 164.22 11.636 161.915 11.636C159.555 11.636 157.784 13.4647 157.784 17.0936C157.784 20.7224 159.555 22.5797 161.915 22.5797ZM161.915 25.0941C158.093 25.0941 155.087 22.2653 155.087 17.0936C155.087 11.9218 158.262 9.09302 161.915 9.09302C165.512 9.09302 168.66 11.9218 168.66 17.0936C168.66 22.2653 165.709 25.0941 161.915 25.0941Z" fill="url(#paint15_linear_107_31)"/>
<path d="M171.196 24.6657V3.80713H174.006V24.6657H171.196Z" fill="url(#paint16_linear_107_31)"/>
<path d="M187.038 19.2653V15.2079C187.038 13.4649 185.746 11.6362 183.413 11.6362C180.744 11.6362 179.254 13.6078 179.254 17.0938C179.254 20.5797 180.716 22.5799 183.413 22.5799C185.605 22.5799 187.038 21.0083 187.038 19.2653ZM187.263 24.6657V23.2085H187.207C186.786 23.6942 185.38 25.0943 182.992 25.0943C179.058 25.0943 176.528 21.9512 176.528 17.0938C176.528 12.0934 179.479 9.09321 182.964 9.09321C185.184 9.09321 186.476 10.379 186.982 10.979H187.038V3.80713H189.764V24.6657H187.263Z" fill="url(#paint17_linear_107_31)"/>
<defs>
<linearGradient id="paint0_linear_107_31" x1="-3.8988" y1="16.4201" x2="219.952" y2="16.4201" gradientUnits="userSpaceOnUse">
<stop offset="0.168328" stop-color="#FFCC69"/>
<stop offset="0.645833" stop-color="#FDE5B6"/>
<stop offset="1" stop-color="#FFDD9B"/>
</linearGradient>
<linearGradient id="paint1_linear_107_31" x1="-3.89873" y1="16.4203" x2="219.952" y2="16.4203" gradientUnits="userSpaceOnUse">
<stop offset="0.168328" stop-color="#FFCC69"/>
<stop offset="0.645833" stop-color="#FDE5B6"/>
<stop offset="1" stop-color="#FFDD9B"/>
</linearGradient>
<linearGradient id="paint2_linear_107_31" x1="-3.89851" y1="16.4201" x2="219.952" y2="16.4201" gradientUnits="userSpaceOnUse">
<stop offset="0.168328" stop-color="#FFCC69"/>
<stop offset="0.645833" stop-color="#FDE5B6"/>
<stop offset="1" stop-color="#FFDD9B"/>
</linearGradient>
<linearGradient id="paint3_linear_107_31" x1="-3.89864" y1="16.4203" x2="219.952" y2="16.4203" gradientUnits="userSpaceOnUse">
<stop offset="0.168328" stop-color="#FFCC69"/>
<stop offset="0.645833" stop-color="#FDE5B6"/>
<stop offset="1" stop-color="#FFDD9B"/>
</linearGradient>
<linearGradient id="paint4_linear_107_31" x1="-3.89861" y1="16.4203" x2="219.952" y2="16.4203" gradientUnits="userSpaceOnUse">
<stop offset="0.168328" stop-color="#FFCC69"/>
<stop offset="0.645833" stop-color="#FDE5B6"/>
<stop offset="1" stop-color="#FFDD9B"/>
</linearGradient>
<linearGradient id="paint5_linear_107_31" x1="-3.89864" y1="16.4201" x2="219.952" y2="16.4201" gradientUnits="userSpaceOnUse">
<stop offset="0.168328" stop-color="#FFCC69"/>
<stop offset="0.645833" stop-color="#FDE5B6"/>
<stop offset="1" stop-color="#FFDD9B"/>
</linearGradient>
<linearGradient id="paint6_linear_107_31" x1="-3.89847" y1="16.4203" x2="219.952" y2="16.4203" gradientUnits="userSpaceOnUse">
<stop offset="0.168328" stop-color="#FFCC69"/>
<stop offset="0.645833" stop-color="#FDE5B6"/>
<stop offset="1" stop-color="#FFDD9B"/>
</linearGradient>
<linearGradient id="paint7_linear_107_31" x1="-3.89874" y1="16.4201" x2="219.952" y2="16.4201" gradientUnits="userSpaceOnUse">
<stop offset="0.168328" stop-color="#FFCC69"/>
<stop offset="0.645833" stop-color="#FDE5B6"/>
<stop offset="1" stop-color="#FFDD9B"/>
</linearGradient>
<linearGradient id="paint8_linear_107_31" x1="-3.89864" y1="16.4201" x2="219.952" y2="16.4201" gradientUnits="userSpaceOnUse">
<stop offset="0.168328" stop-color="#FFCC69"/>
<stop offset="0.645833" stop-color="#FDE5B6"/>
<stop offset="1" stop-color="#FFDD9B"/>
</linearGradient>
<linearGradient id="paint9_linear_107_31" x1="-3.89853" y1="16.4203" x2="219.952" y2="16.4203" gradientUnits="userSpaceOnUse">
<stop offset="0.168328" stop-color="#FFCC69"/>
<stop offset="0.645833" stop-color="#FDE5B6"/>
<stop offset="1" stop-color="#FFDD9B"/>
</linearGradient>
<linearGradient id="paint10_linear_107_31" x1="-3.89869" y1="16.4202" x2="219.952" y2="16.4202" gradientUnits="userSpaceOnUse">
<stop offset="0.168328" stop-color="#FFCC69"/>
<stop offset="0.645833" stop-color="#FDE5B6"/>
<stop offset="1" stop-color="#FFDD9B"/>
</linearGradient>
<linearGradient id="paint11_linear_107_31" x1="-3.89886" y1="16.4202" x2="219.952" y2="16.4202" gradientUnits="userSpaceOnUse">
<stop offset="0.168328" stop-color="#FFCC69"/>
<stop offset="0.645833" stop-color="#FDE5B6"/>
<stop offset="1" stop-color="#FFDD9B"/>
</linearGradient>
<linearGradient id="paint12_linear_107_31" x1="-3.89855" y1="16.4201" x2="219.952" y2="16.4201" gradientUnits="userSpaceOnUse">
<stop offset="0.168328" stop-color="#FFCC69"/>
<stop offset="0.645833" stop-color="#FDE5B6"/>
<stop offset="1" stop-color="#FFDD9B"/>
</linearGradient>
<linearGradient id="paint13_linear_107_31" x1="-3.89882" y1="16.4202" x2="219.952" y2="16.4202" gradientUnits="userSpaceOnUse">
<stop offset="0.168328" stop-color="#FFCC69"/>
<stop offset="0.645833" stop-color="#FDE5B6"/>
<stop offset="1" stop-color="#FFDD9B"/>
</linearGradient>
<linearGradient id="paint14_linear_107_31" x1="-3.89846" y1="16.4202" x2="219.952" y2="16.4202" gradientUnits="userSpaceOnUse">
<stop offset="0.168328" stop-color="#FFCC69"/>
<stop offset="0.645833" stop-color="#FDE5B6"/>
<stop offset="1" stop-color="#FFDD9B"/>
</linearGradient>
<linearGradient id="paint15_linear_107_31" x1="-3.89876" y1="16.4201" x2="219.952" y2="16.4201" gradientUnits="userSpaceOnUse">
<stop offset="0.168328" stop-color="#FFCC69"/>
<stop offset="0.645833" stop-color="#FDE5B6"/>
<stop offset="1" stop-color="#FFDD9B"/>
</linearGradient>
<linearGradient id="paint16_linear_107_31" x1="-3.89827" y1="16.4203" x2="219.952" y2="16.4203" gradientUnits="userSpaceOnUse">
<stop offset="0.168328" stop-color="#FFCC69"/>
<stop offset="0.645833" stop-color="#FDE5B6"/>
<stop offset="1" stop-color="#FFDD9B"/>
</linearGradient>
<linearGradient id="paint17_linear_107_31" x1="-3.89829" y1="16.4203" x2="219.952" y2="16.4203" gradientUnits="userSpaceOnUse">
<stop offset="0.168328" stop-color="#FFCC69"/>
<stop offset="0.645833" stop-color="#FDE5B6"/>
<stop offset="1" stop-color="#FFDD9B"/>
</linearGradient>
</defs>
</svg>
